<?xml version="1.0" encoding="UTF-8"?>
<svg xmlns="http://www.w3.org/2000/svg" xmlns:xlink="http://www.w3.org/1999/xlink"
     width="815.0" height="600.0" viewBox="-155.0 -190.0 815.0 600.0">
<defs>
<marker markerWidth="10" markerHeight="10" viewBox="-8 -5 10 10" orient="auto-start-reverse" id="d0">
<path d="M-8,3 L-8,-3 L2,0 Z" fill="black" />
</marker>
<marker markerWidth="10" markerHeight="10" viewBox="-8 -5 10 10" orient="auto-start-reverse" id="d1">
<path d="M-8,3 L-8,-3 L2,0 Z" fill="black" />
</marker>
</defs>
<rect x="-155.0" y="-190.0" width="815.0" height="600.0" fill="white" stroke="none" />
<rect x="-90.0" y="35.0" width="380.0" height="70.0" fill="none" stroke="black" stroke-width="2" rx="0" />
<text x="-90.0" y="35.0" font-size="20" text-anchor="start" dominant-baseline="text-after-edge" font-family="Arial" font-weight="bold"></text>
<rect x="-90.0" y="155.0" width="380.0" height="210.0" fill="none" stroke="black" stroke-width="2" rx="20.0" />
<text x="-90.0" y="155.0" font-size="20" text-anchor="start" dominant-baseline="text-after-edge" font-family="Arial" font-weight="bold">Rounded cluster</text>
<rect x="310.0" y="-55.0" width="285.0" height="300.0" fill="#efffb9" stroke="black" stroke-width="2" rx="0" />
<text x="310.0" y="-55.0" font-size="20" text-anchor="start" dominant-baseline="text-after-edge" font-family="Arial" font-weight="bold">Colored cluster</text>
<rect x="-105.0" y="-90.0" width="715.0" height="470.0" fill="none" stroke="black" stroke-width="2" rx="0" />
<text x="-105.0" y="-90.0" font-size="20" text-anchor="start" dominant-baseline="text-after-edge" font-family="Arial" font-weight="bold">Englobing cluster</text>
<path d="M0.0,230.0 L0.0,308.0 Q0.0,350.0,100.0,350.0 Q200.0,350.0,200.0,308.0 L200.0,300.0" stroke="black" stroke-width="2" fill="none" marker-end="url(#d0)" />
<path d="M475.0,210.0 L483.0,210.0 Q580.0,210.0,580.0,105.0 Q580.0,0.0,483.0,0.0 L475.0,0.0" stroke="black" stroke-width="2" fill="none" marker-start="url(#d1)" />
<rect x="125.0" y="-160.0" width="150.0" height="40.0" fill="white" stroke="black" stroke-width="2" rx="0" />
<text x="200" y="-140" font-size="20" text-anchor="middle" dominant-baseline="middle" font-family="Arial">Out node</text>
<rect x="-75.0" y="50.0" width="150.0" height="40.0" fill="white" stroke="black" stroke-width="2" rx="0" />
<text x="0" y="70" font-size="20" text-anchor="middle" dominant-baseline="middle" font-family="Arial">A</text>
<rect x="325.0" y="-20.0" width="150.0" height="40.0" fill="white" stroke="black" stroke-width="2" rx="0" />
<text x="400" y="0" font-size="20" text-anchor="middle" dominant-baseline="middle" font-family="Arial">B</text>
<rect x="-75.0" y="190.0" width="150.0" height="40.0" fill="white" stroke="black" stroke-width="2" rx="0" />
<text x="0" y="210" font-size="20" text-anchor="middle" dominant-baseline="middle" font-family="Arial">C</text>
<rect x="125.0" y="260.0" width="150.0" height="40.0" fill="white" stroke="black" stroke-width="2" rx="0" />
<text x="200" y="280" font-size="20" text-anchor="middle" dominant-baseline="middle" font-family="Arial">D</text>
<rect x="325.0" y="190.0" width="150.0" height="40.0" fill="white" stroke="black" stroke-width="2" rx="0" />
<text x="400" y="210" font-size="20" text-anchor="middle" dominant-baseline="middle" font-family="Arial">E</text>
<rect x="125.0" y="50.0" width="150.0" height="40.0" fill="white" stroke="black" stroke-width="2" rx="0" />
<text x="200" y="70" font-size="20" text-anchor="middle" dominant-baseline="middle" font-family="Arial">F</text>
</svg>