<?xml version="1.0" encoding="UTF-8"?>
<svg xmlns="http://www.w3.org/2000/svg" xmlns:xlink="http://www.w3.org/1999/xlink"
     width="1030.0" height="710.0" viewBox="5.0 460.0 1030.0 710.0">
<defs>
<marker markerWidth="10" markerHeight="10" viewBox="-8 -5 10 10" orient="auto-start-reverse" id="d0">
<path d="M-8,3 L-8,-3 L2,0 Z" fill="black" />
</marker>
<marker markerWidth="10" markerHeight="10" viewBox="-8 -5 10 10" orient="auto-start-reverse" id="d1">
<path d="M-8,3 L-8,-3 L2,0 Z" fill="black" />
</marker>
<marker markerWidth="10" markerHeight="10" viewBox="-8 -5 10 10" orient="auto-start-reverse" id="d2">
<path d="M-8,3 L-8,-3 L2,0 Z" fill="black" />
</marker>
<marker markerWidth="10" markerHeight="10" viewBox="-8 -5 10 10" orient="auto-start-reverse" id="d3">
<path d="M-8,3 L-8,-3 L2,0 Z" fill="black" />
</marker>
<marker markerWidth="10" markerHeight="10" viewBox="-8 -5 10 10" orient="auto-start-reverse" id="d4">
<path d="M-8,3 L-8,-3 L2,0 Z" fill="black" />
</marker>
<marker markerWidth="10" markerHeight="10" viewBox="-8 -5 10 10" orient="auto-start-reverse" id="d5">
<path d="M-8,3 L-8,-3 L2,0 Z" fill="black" />
</marker>
<marker markerWidth="10" markerHeight="10" viewBox="-8 -5 10 10" orient="auto-start-reverse" id="d6">
<path d="M-8,3 L-8,-3 L2,0 Z" fill="black" />
</marker>
<marker markerWidth="10" markerHeight="10" viewBox="-8 -5 10 10" orient="auto-start-reverse" id="d7">
<path d="M-8,3 L-8,-3 L2,0 Z" fill="black" />
</marker>
<marker markerWidth="10" markerHeight="10" viewBox="-8 -5 10 10" orient="auto-start-reverse" id="d8">
<path d="M-8,3 L-8,-3 L2,0 Z" fill="black" />
</marker>
</defs>
<rect x="5.0" y="460.0" width="1030.0" height="710.0" fill="white" stroke="none" />
<path d="M275.0,580.0 L275.0,728.0 Q275.0,770.0,400.0,770.0 Q500.0,770.0,500.0,728.0 L500.0,720.0" stroke="black" stroke-width="2" fill="none" marker-end="url(#d0)" />
<text x="400.0" y="770.0" font-size="20" text-anchor="middle" dominant-baseline="middle" font-family="Arial" fill="white" stroke="white" stroke-width="4">BOTTOM_BOTTOM</text>
<text x="400.0" y="770.0" font-size="20" text-anchor="middle" dominant-baseline="middle" font-family="Arial" fill="black">BOTTOM_BOTTOM</text>
<path d="M325.0,580.0 L325.0,588.0 Q325.0,630.0,400.0,630.0 Q475.0,630.0,475.0,672.0 L475.0,680.0" stroke="black" stroke-width="2" fill="none" marker-end="url(#d1)" />
<text x="400.0" y="630.0" font-size="20" text-anchor="middle" dominant-baseline="middle" font-family="Arial" fill="white" stroke="white" stroke-width="4">TOP_BOTTOM</text>
<text x="400.0" y="630.0" font-size="20" text-anchor="middle" dominant-baseline="middle" font-family="Arial" fill="black">TOP_BOTTOM</text>
<path d="M300.0,540.0 L300.0,532.0 Q300.0,490.0,400.0,490.0 Q525.0,490.0,525.0,532.0 L525.0,680.0" stroke="black" stroke-width="2" fill="none" marker-end="url(#d2)" />
<text x="400.0" y="490.0" font-size="20" text-anchor="middle" dominant-baseline="middle" font-family="Arial" fill="white" stroke="white" stroke-width="4">TOP_TOP</text>
<text x="400.0" y="490.0" font-size="20" text-anchor="middle" dominant-baseline="middle" font-family="Arial" fill="black">TOP_TOP</text>
<path d="M275.0,833.3333333333334 L583.0,833.3333333333334 Q645.0,833.3333333333334,645.0,910.0 Q645.0,973.3333333333334,583.0,973.3333333333334 L575.0,973.3333333333334" stroke="black" stroke-width="2" fill="none" marker-end="url(#d3)" />
<path d="M275.0,846.6666666666666 L283.0,846.6666666666666 Q350.0,846.6666666666666,350.0,910.0 Q350.0,970.0,417.0,970.0 L425.0,970.0" stroke="black" stroke-width="2" fill="none" marker-end="url(#d4)" />
<text x="350.0" y="910.0" font-size="20" text-anchor="middle" dominant-baseline="middle" font-family="Arial" fill="white" stroke="white" stroke-width="4">LEFT_RIGHT</text>
<text x="350.0" y="910.0" font-size="20" text-anchor="middle" dominant-baseline="middle" font-family="Arial" fill="black">LEFT_RIGHT</text>
<path d="M125.0,840.0 L117.0,840.0 Q55.0,840.0,55.0,910.0 Q55.0,980.0,117.0,980.0 L425.0,980.0" stroke="black" stroke-width="2" fill="none" marker-end="url(#d5)" />
<path d="M575.0,693.3333333333334 L783.0,693.3333333333334 Q985.0,693.3333333333334,985.0,910.0 Q985.0,1120.0,783.0,1120.0 L775.0,1120.0" stroke="black" stroke-width="2" fill="none" marker-end="url(#d6)" />
<path d="M575.0,986.6666666666666 L583.0,986.6666666666666 Q715.0,986.6666666666666,715.0,840.0 Q715.0,706.6666666666666,583.0,706.6666666666666 L575.0,706.6666666666666" stroke="black" stroke-width="2" fill="none" marker-start="url(#d7)" />
<text x="715.0" y="840.0" font-size="20" text-anchor="middle" dominant-baseline="middle" font-family="Arial" fill="white" stroke="white" stroke-width="4">RIGHT_RIGHT</text>
<text x="715.0" y="840.0" font-size="20" text-anchor="middle" dominant-baseline="middle" font-family="Arial" fill="black">RIGHT_RIGHT</text>
<path d="M425.0,990.0 L417.0,990.0 Q355.0,990.0,355.0,1050.0 Q355.0,1120.0,417.0,1120.0 L625.0,1120.0" stroke="black" stroke-width="2" fill="none" marker-end="url(#d8)" />
<text x="355.0" y="1050.0" font-size="20" text-anchor="middle" dominant-baseline="middle" font-family="Arial" fill="white" stroke="white" stroke-width="4">LEFT_LEFT</text>
<text x="355.0" y="1050.0" font-size="20" text-anchor="middle" dominant-baseline="middle" font-family="Arial" fill="black">LEFT_LEFT</text>
<rect x="225.0" y="540.0" width="150.0" height="40.0" fill="white" stroke="black" stroke-width="2" rx="0" />
<text x="300.0" y="560" font-size="20" text-anchor="middle" dominant-baseline="middle" font-family="Arial">A</text>
<rect x="425.0" y="680.0" width="150.0" height="40.0" fill="white" stroke="black" stroke-width="2" rx="0" />
<text x="500.0" y="700" font-size="20" text-anchor="middle" dominant-baseline="middle" font-family="Arial">B</text>
<rect x="125.0" y="820.0" width="150.0" height="40.0" fill="white" stroke="black" stroke-width="2" rx="0" />
<text x="200" y="840" font-size="20" text-anchor="middle" dominant-baseline="middle" font-family="Arial">C</text>
<rect x="425.0" y="960.0" width="150.0" height="40.0" fill="white" stroke="black" stroke-width="2" rx="0" />
<text x="500.0" y="980" font-size="20" text-anchor="middle" dominant-baseline="middle" font-family="Arial">D</text>
<rect x="625.0" y="1100.0" width="150.0" height="40.0" fill="white" stroke="black" stroke-width="2" rx="0" />
<text x="700.0" y="1120" font-size="20" text-anchor="middle" dominant-baseline="middle" font-family="Arial">E</text>
</svg>