<?xml version="1.0" encoding="UTF-8"?>
<svg xmlns="http://www.w3.org/2000/svg" xmlns:xlink="http://www.w3.org/1999/xlink"
     width="1050.0" height="1080.0" viewBox="-125.0 -50.0 1050.0 1080.0">
<defs>
<marker markerWidth="10" markerHeight="10" viewBox="-8 -5 10 10" orient="auto-start-reverse" id="d0">
<path d="M-8,3 L-8,-3 L2,0 Z" fill="black" />
</marker>
<marker markerWidth="10" markerHeight="10" viewBox="-8 -5 10 10" orient="auto-start-reverse" id="d1">
<path d="M-8,3 L-8,-3 L2,0 Z" fill="black" />
</marker>
<marker markerWidth="10" markerHeight="10" viewBox="-8 -5 10 10" orient="auto-start-reverse" id="d2">
<path d="M-8,3 L-8,-3 L2,0 Z" fill="black" />
</marker>
<marker markerWidth="10" markerHeight="10" viewBox="-8 -5 10 10" orient="auto-start-reverse" id="d3">
<path d="M-8,3 L-8,-3 L2,0 Z" fill="#d00000" />
</marker>
<marker markerWidth="10" markerHeight="10" viewBox="-8 -5 10 10" orient="auto-start-reverse" id="d4">
<path d="M-8,3 L-8,-3 L2,0 Z" fill="#00aa00" />
</marker>
<marker markerWidth="10" markerHeight="10" viewBox="-8 -5 10 10" orient="auto-start-reverse" id="d5">
<path d="M-8,3 L-8,-3 L2,0 Z" fill="black" />
</marker>
<marker markerWidth="10" markerHeight="10" viewBox="-8 -5 10 10" orient="auto-start-reverse" id="d6">
<path d="M-8,3 L-8,-3 L2,0 Z" fill="black" />
</marker>
<marker markerWidth="10" markerHeight="10" viewBox="-8 -5 10 10" orient="auto-start-reverse" id="d7">
<path d="M-8,3 L-8,-3 L2,0 Z" fill="black" />
</marker>
<marker markerWidth="10" markerHeight="10" viewBox="-8 -5 10 10" orient="auto-start-reverse" id="d8">
<path d="M-8,3 L-8,-3 L2,0 Z" fill="black" />
</marker>
<marker markerWidth="10" markerHeight="10" viewBox="-8 -5 10 10" orient="auto-start-reverse" id="d9">
<path d="M-8,3 L-8,-3 L2,0 Z" fill="black" />
</marker>
<marker markerWidth="10" markerHeight="10" viewBox="-8 -5 10 10" orient="auto-start-reverse" id="d10">
<path d="M-8,3 L-8,-3 L2,0 Z" fill="black" />
</marker>
<marker markerWidth="10" markerHeight="10" viewBox="-8 -5 10 10" orient="auto-start-reverse" id="d11">
<path d="M-8,3 L-8,-3 L2,0 Z" fill="black" />
</marker>
</defs>
<rect x="-125.0" y="-50.0" width="1050.0" height="1080.0" fill="white" stroke="none" />
<path d="M350.0,20.0 L0.0,155.0" stroke="black" stroke-width="2" fill="none" />
<path d="M375.0,20.0 L200.0,155.0" stroke="black" stroke-width="2" stroke-dasharray="7,4" fill="none" />
<path d="M400.0,20.0 L400.0,155.0" stroke="black" stroke-width="2" fill="none" marker-start="url(#d0)" />
<path d="M425.0,20.0 L600.0,155.0" stroke="black" stroke-width="2" stroke-dasharray="7,4" fill="none" marker-end="url(#d1)" />
<path d="M450.0,20.0 L800.0,155.0" stroke="black" stroke-width="2" fill="none" marker-start="url(#d2)" marker-end="url(#d2)" />
<path d="M175.0,280.0 L325.0,343.3333333333333" stroke="black" stroke-width="2" fill="none" />
<path d="M175.0,420.0 L325.0,356.6666666666667" stroke="black" stroke-width="2" stroke-dasharray="7,4" fill="none" />
<text x="250.0" y="388.33333333333337" font-size="20" text-anchor="middle" dominant-baseline="middle" font-family="Arial" fill="white" stroke="white" stroke-width="4">dashed</text>
<text x="250.0" y="388.33333333333337" font-size="20" text-anchor="middle" dominant-baseline="middle" font-family="Arial" fill="black">dashed</text>
<path d="M475.0,340.0 L625.0,280.0" stroke="#d00000" stroke-width="2" fill="none" marker-start="url(#d3)" />
<text x="550.0" y="310.0" font-size="20" text-anchor="middle" dominant-baseline="middle" font-family="Arial" fill="white" stroke="white" stroke-width="4">red</text>
<text x="550.0" y="310.0" font-size="20" text-anchor="middle" dominant-baseline="middle" font-family="Arial" fill="#d00000">red</text>
<path d="M475.0,350.0 L625.0,350.0" stroke="#00aa00" stroke-width="2" fill="none" marker-end="url(#d4)" />
<path d="M475.0,360.0 L625.0,420.0" stroke="black" stroke-width="2" fill="none" marker-start="url(#d5)" marker-end="url(#d5)" />
<path d="M300.0,540.0 L300.0,532.0 Q300.0,490.0,400.0,490.0 Q525.0,490.0,525.0,532.0 L525.0,680.0" stroke="black" stroke-width="2" fill="none" marker-end="url(#d6)" />
<text x="400.0" y="490.0" font-size="20" text-anchor="middle" dominant-baseline="middle" font-family="Arial" fill="white" stroke="white" stroke-width="4">CURVE_BEFORE</text>
<text x="400.0" y="490.0" font-size="20" text-anchor="middle" dominant-baseline="middle" font-family="Arial" fill="black">CURVE_BEFORE</text>
<path d="M125.0,840.0 L117.0,840.0 Q75.0,840.0,75.0,910.0 Q75.0,986.6666666666666,117.0,986.6666666666666 L525.0,986.6666666666666" stroke="black" stroke-width="2" fill="none" marker-end="url(#d7)" />
<text x="75.0" y="910.0" font-size="20" text-anchor="middle" dominant-baseline="middle" font-family="Arial" fill="white" stroke="white" stroke-width="4">CURVE_BEFORE</text>
<text x="75.0" y="910.0" font-size="20" text-anchor="middle" dominant-baseline="middle" font-family="Arial" fill="black">CURVE_BEFORE</text>
<path d="M325.0,580.0 L325.0,588.0 Q325.0,630.0,400.0,630.0 Q475.0,630.0,475.0,672.0 L475.0,680.0" stroke="black" stroke-width="2" fill="none" marker-end="url(#d8)" />
<text x="400.0" y="630.0" font-size="20" text-anchor="middle" dominant-baseline="middle" font-family="Arial" fill="white" stroke="white" stroke-width="4">CURVE_BETWEEN</text>
<text x="400.0" y="630.0" font-size="20" text-anchor="middle" dominant-baseline="middle" font-family="Arial" fill="black">CURVE_BETWEEN</text>
<path d="M275.0,846.6666666666666 L283.0,846.6666666666666 Q400.0,846.6666666666666,400.0,910.0 Q400.0,973.3333333333334,517.0,973.3333333333334 L525.0,973.3333333333334" stroke="black" stroke-width="2" fill="none" marker-end="url(#d9)" />
<text x="400.0" y="910.0" font-size="20" text-anchor="middle" dominant-baseline="middle" font-family="Arial" fill="white" stroke="white" stroke-width="4">CURVE_BETWEEN</text>
<text x="400.0" y="910.0" font-size="20" text-anchor="middle" dominant-baseline="middle" font-family="Arial" fill="black">CURVE_BETWEEN</text>
<path d="M275.0,580.0 L275.0,728.0 Q275.0,770.0,400.0,770.0 Q500.0,770.0,500.0,728.0 L500.0,720.0" stroke="black" stroke-width="2" fill="none" marker-end="url(#d10)" />
<text x="400.0" y="770.0" font-size="20" text-anchor="middle" dominant-baseline="middle" font-family="Arial" fill="white" stroke="white" stroke-width="4">CURVE_AFTER</text>
<text x="400.0" y="770.0" font-size="20" text-anchor="middle" dominant-baseline="middle" font-family="Arial" fill="black">CURVE_AFTER</text>
<path d="M275.0,833.3333333333334 L683.0,833.3333333333334 Q725.0,833.3333333333334,725.0,910.0 Q725.0,980.0,683.0,980.0 L675.0,980.0" stroke="black" stroke-width="2" fill="none" marker-end="url(#d11)" />
<text x="725.0" y="910.0" font-size="20" text-anchor="middle" dominant-baseline="middle" font-family="Arial" fill="white" stroke="white" stroke-width="4">CURVE_AFTER</text>
<text x="725.0" y="910.0" font-size="20" text-anchor="middle" dominant-baseline="middle" font-family="Arial" fill="black">CURVE_AFTER</text>
<rect x="325.0" y="-20.0" width="150.0" height="40.0" fill="white" stroke="black" stroke-width="2" rx="0" />
<text x="400" y="0" font-size="20" text-anchor="middle" dominant-baseline="middle" font-family="Arial">VERTICAL</text>
<rect x="325.0" y="330.0" width="150.0" height="40.0" fill="white" stroke="black" stroke-width="2" rx="0" />
<text x="400" y="350" font-size="20" text-anchor="middle" dominant-baseline="middle" font-family="Arial">HORIZONTAL</text>
<rect x="-75.0" y="155.0" width="150.0" height="40.0" fill="white" stroke="black" stroke-width="2" rx="0" />
<text x="0" y="175.0" font-size="20" text-anchor="middle" dominant-baseline="middle" font-family="Arial">-</text>
<rect x="125.0" y="155.0" width="150.0" height="40.0" fill="white" stroke="black" stroke-width="2" rx="0" />
<text x="200" y="175.0" font-size="20" text-anchor="middle" dominant-baseline="middle" font-family="Arial">--</text>
<rect x="325.0" y="155.0" width="150.0" height="40.0" fill="white" stroke="black" stroke-width="2" rx="0" />
<text x="400" y="175.0" font-size="20" text-anchor="middle" dominant-baseline="middle" font-family="Arial">&lt;-</text>
<rect x="525.0" y="155.0" width="150.0" height="40.0" fill="white" stroke="black" stroke-width="2" rx="0" />
<text x="600" y="175.0" font-size="20" text-anchor="middle" dominant-baseline="middle" font-family="Arial">--&gt;</text>
<rect x="725.0" y="155.0" width="150.0" height="40.0" fill="white" stroke="black" stroke-width="2" rx="0" />
<text x="800" y="175.0" font-size="20" text-anchor="middle" dominant-baseline="middle" font-family="Arial">&lt;-&gt;</text>
<rect x="25.0" y="260.0" width="150.0" height="40.0" fill="white" stroke="black" stroke-width="2" rx="0" />
<text x="100.0" y="280" font-size="20" text-anchor="middle" dominant-baseline="middle" font-family="Arial">-</text>
<rect x="25.0" y="400.0" width="150.0" height="40.0" fill="white" stroke="black" stroke-width="2" rx="0" />
<text x="100.0" y="420" font-size="20" text-anchor="middle" dominant-baseline="middle" font-family="Arial">--</text>
<rect x="625.0" y="260.0" width="150.0" height="40.0" fill="white" stroke="black" stroke-width="2" rx="0" />
<text x="700.0" y="280" font-size="20" text-anchor="middle" dominant-baseline="middle" font-family="Arial">&lt;-</text>
<rect x="625.0" y="330.0" width="150.0" height="40.0" fill="white" stroke="black" stroke-width="2" rx="0" />
<text x="700.0" y="350" font-size="20" text-anchor="middle" dominant-baseline="middle" font-family="Arial">-&gt;</text>
<rect x="625.0" y="400.0" width="150.0" height="40.0" fill="white" stroke="black" stroke-width="2" rx="0" />
<text x="700.0" y="420" font-size="20" text-anchor="middle" dominant-baseline="middle" font-family="Arial">&lt;-&gt;</text>
<rect x="225.0" y="540.0" width="150.0" height="40.0" fill="white" stroke="black" stroke-width="2" rx="0" />
<text x="300.0" y="560" font-size="20" text-anchor="middle" dominant-baseline="middle" font-family="Arial">VERTICAL</text>
<rect x="425.0" y="680.0" width="150.0" height="40.0" fill="white" stroke="black" stroke-width="2" rx="0" />
<text x="500.0" y="700" font-size="20" text-anchor="middle" dominant-baseline="middle" font-family="Arial">CURVED</text>
<rect x="125.0" y="820.0" width="150.0" height="40.0" fill="white" stroke="black" stroke-width="2" rx="0" />
<text x="200" y="840" font-size="20" text-anchor="middle" dominant-baseline="middle" font-family="Arial">HORIZONTAL</text>
<rect x="525.0" y="960.0" width="150.0" height="40.0" fill="white" stroke="black" stroke-width="2" rx="0" />
<text x="600" y="980" font-size="20" text-anchor="middle" dominant-baseline="middle" font-family="Arial">CURVED</text>
</svg>