<?xml version="1.0" encoding="UTF-8"?>
<svg xmlns="http://www.w3.org/2000/svg" xmlns:xlink="http://www.w3.org/1999/xlink"
     width="680.0" height="325.0" viewBox="-140.0 -50.0 680.0 325.0">
<defs>
<marker markerWidth="11" markerHeight="10" viewBox="-9 -5 11 10" orient="auto-start-reverse" id="d0">
<path d="M-9,3 L-9,-3 L2,0 Z" fill="black" />
</marker>
<marker markerWidth="11" markerHeight="10" viewBox="-9 -5 11 10" orient="auto-start-reverse" id="d1">
<path d="M-9,3 L-9,-3 L2,0 Z" fill="black" />
</marker>
</defs>
<rect x="-140.0" y="-50.0" width="680.0" height="325.0" fill="white" stroke="none" />
<rect x="-90.0" y="105.0" width="180.0" height="140.0" fill="none" stroke="black" stroke-width="2" rx="0" />
<text x="-90.0" y="105.0" font-size="20" text-anchor="start" dominant-baseline="text-after-edge" font-family="Arial" font-weight="bold"></text>
<rect x="110.0" y="105.0" width="380.0" height="70.0" fill="#efffb9" stroke="black" stroke-width="2" rx="0" />
<text x="110.0" y="105.0" font-size="20" text-anchor="start" dominant-baseline="text-after-edge" font-family="Arial" font-weight="bold"></text>
<path d="M75.0,20.0 L0.0,120.0" stroke="black" stroke-width="2" fill="none" marker-end="url(#d0)" />
<text x="37.5" y="70.0" font-size="20" text-anchor="middle" dominant-baseline="middle" font-family="Arial" fill="white" stroke="white" stroke-width="4"></text>
<text x="37.5" y="70.0" font-size="20" text-anchor="middle" dominant-baseline="middle" font-family="Arial"></text>
<path d="M0.0,160.0 L0.0,190.0" stroke="black" stroke-width="2" fill="none" />
<text x="0.0" y="175.0" font-size="20" text-anchor="middle" dominant-baseline="middle" font-family="Arial" fill="white" stroke="white" stroke-width="4"></text>
<text x="0.0" y="175.0" font-size="20" text-anchor="middle" dominant-baseline="middle" font-family="Arial"></text>
<path d="M125.0,20.0 L200.0,120.0" stroke="black" stroke-width="2" stroke-dasharray="7,4" fill="none" />
<text x="162.5" y="70.0" font-size="20" text-anchor="middle" dominant-baseline="middle" font-family="Arial" fill="white" stroke="white" stroke-width="4"></text>
<text x="162.5" y="70.0" font-size="20" text-anchor="middle" dominant-baseline="middle" font-family="Arial"></text>
<path d="M275.0,140.0 L325.0,140.0" stroke="black" stroke-width="2" fill="none" marker-start="url(#d1)" marker-end="url(#d1)" />
<text x="300.0" y="140.0" font-size="20" text-anchor="middle" dominant-baseline="middle" font-family="Arial" fill="white" stroke="white" stroke-width="4"></text>
<text x="300.0" y="140.0" font-size="20" text-anchor="middle" dominant-baseline="middle" font-family="Arial"></text>
<rect x="25.0" y="-20.0" width="150.0" height="40.0" fill="white" stroke="black" stroke-width="2" rx="0" />
<text x="100.0" y="0" font-size="20" text-anchor="middle" dominant-baseline="middle" font-family="Arial">A</text>
<rect x="-75.0" y="120.0" width="150.0" height="40.0" fill="#bcd7ff" stroke="black" stroke-width="2" rx="0" />
<text x="0" y="140" font-size="20" text-anchor="middle" dominant-baseline="middle" font-family="Arial">B</text>
<rect x="-75.0" y="190.0" width="150.0" height="40.0" fill="white" stroke="black" stroke-width="2" rx="20.0" />
<text x="0" y="210" font-size="20" text-anchor="middle" dominant-baseline="middle" font-family="Arial">C</text>
<rect x="125.0" y="120.0" width="150.0" height="40.0" fill="white" stroke="black" stroke-width="2" rx="0" />
<text x="200" y="140" font-size="20" text-anchor="middle" dominant-baseline="middle" font-family="Arial">D</text>
<rect x="325.0" y="120.0" width="150.0" height="40.0" fill="white" stroke="black" stroke-width="2" rx="0" />
<text x="400" y="140" font-size="20" text-anchor="middle" dominant-baseline="middle" font-family="Arial">E</text>
</svg>